<svg id="Livello_1" xmlns="http://www.w3.org/2000/svg" viewBox="0 0 284.9 131.4"><style>.st0{fill:#771238;} .st1{fill:#E84555;}</style><path class="st0" d="M35.2 98.8H23.8V90h-6.2v23.8h6.2V105h11.4v8.8h6.2V90h-6.2zm9.8-2.7h8.6v17.7h6.2V96.1h14.6v17.7h6.2V96.1h8.6V90H45zm71.3.5c-.1-.6-.3-1.3-.6-1.9-.3-.6-.6-1.2-1.1-1.8-.4-.6-1-1.1-1.6-1.5-.6-.4-1.4-.8-2.2-1.1-.8-.3-1.7-.4-2.7-.4h-8.8c-.7 0-1.4.1-2.1.3-.8.2-1.5.6-2.1 1.1-.7.5-1.2 1.2-1.7 2.1-.4.9-.7 1.9-.7 3.1v17.2h6.2V96.6c0-.2 0-.3.1-.4 0 0 .1-.1.4-.1h8.8c.4 0 .7.1.9.2.2.1.5.2.6.4.2.2.3.4.4.7.1.3.2.7.2.9v1.8c0 .4-.1.7-.2.9-.1.2-.2.5-.4.6-.2.2-.4.3-.7.4-.3.1-.6.2-.9.2H102v6.2h6.1c.6 0 1.1-.1 1.8-.2.6-.1 1.3-.3 1.9-.6.6-.3 1.2-.6 1.8-1.1.6-.4 1.1-1 1.5-1.6.4-.6.8-1.4 1-2.2.3-.8.4-1.7.4-2.7v-1.8c0-.4-.1-1-.2-1.6z"/><path class="st1" d="M173.1 90.3c-.6.2-1.2.5-1.7.8-.5.3-.9.8-1.3 1.2-.3.4-.6.9-.8 1.4-.2.5-.4 1-.5 1.5-.1.5-.2 1-.2 1.4v10.6c0 .8.1 1.5.3 2.1.2.6.5 1.2.8 1.7.4.5.8.9 1.2 1.3.4.3.9.6 1.4.8.5.2 1 .4 1.5.5.5.1 1 .2 1.4.2h15.2v-6.2h-15.2c-.2 0-.3 0-.4-.1 0 0-.1-.2-.1-.4V96.6c0-.3.1-.4.1-.4s.1-.1.4-.1h15.2V90h-15.2c-.8 0-1.5.1-2.1.3zm42.7.6c-.3-.3-.6-.5-1-.7-.4-.2-.8-.2-1.2-.2h-8.8c-1.7 0-3.3.3-4.7.9-1.4.6-2.7 1.4-3.8 2.5-1.1 1.1-1.9 2.3-2.5 3.8-.6 1.5-.9 3.1-.9 4.8v11.9h6.2v-5.3h11.5v5.3h6.2V93.1c0-.4-.1-.8-.2-1.2-.2-.4-.5-.7-.8-1zm-5.2 5.2v6.2h-11.5v-.4c0-.9.1-1.7.4-2.4.3-.6.6-1.2.9-1.6.4-.4.8-.7 1.2-1 .5-.3 1-.4 1.4-.6.4-.1.8-.2 1.1-.2h6.5zm33.2 4.6c-.2-.4-.4-.7-.6-1-.3-.3-.6-.5-1-.7-.4-.2-.8-.3-1.2-.3h-11.3v6.2h8.2v2.6h-11c-.2 0-.3 0-.4-.1 0 0-.1-.2-.1-.4V96.6c0-.3.1-.4.1-.4s.1-.1.4-.1h17V90h-17c-.8 0-1.5.1-2.1.3-.6.2-1.2.5-1.7.8-.5.3-.9.8-1.3 1.2-.3.4-.6.9-.8 1.4-.2.5-.4 1-.5 1.5s-.2 1-.2 1.4v10.6c0 .8.1 1.5.3 2.1.2.6.5 1.2.8 1.7.4.5.8.9 1.2 1.3.4.3.9.6 1.4.8.5.2 1 .4 1.5.5.5.1 1 .2 1.4.2H241c.4 0 .8-.1 1.2-.2.4-.2.7-.4 1-.7.3-.3.5-.6.7-1 .2-.4.2-.8.2-1.2v-8.8c-.1-.4-.2-.9-.3-1.2zm12.2-1.9h11.3v6.2H256z"/><path class="st1" d="M267.3 107.6h-13.5c-.2 0-.4 0-.4-.1 0 0-.1-.1-.1-.4v-11h13.9V90h-17c-.4 0-.8.1-1.2.2-.4.2-.7.4-1 .7-.3.3-.5.6-.6 1-.2.4-.2.8-.2 1.2v14.1c0 1.2.2 2.2.7 3.1.4.8 1 1.5 1.7 2.1.7.5 1.4.9 2.2 1.1.7.2 1.4.3 2.1.3h13.5v-6.2zm-77.1-48.4v-.1l-6-11.2 1.7-9.9v-.7c0-.1-.1-.2-.1-.3l-7.3-11.9-.1-.1-.2-.2-.1-.1c-.1 0-.1-.1-.3-.1l-21.4-6.8h-27.5l-21.4 6.8c-.1 0-.2.1-.3.1l-.1.1-.2.2-.1.1L99.3 37c-.1.1-.1.2-.1.3v.7l1.7 9.9-6 11.2v.1c-.1.1-.1.3-.1.5v.4l1.5 7.1v.2c0 .1.1.2.1.3l.1.1c0 .1.1.1.1.2l45.5 45.4.1.1c.1.1.2.1.2.1h.2c.1 0 .1-.1.2-.1l.1-.1L188.4 68s.1-.1.1-.2l.1-.1c0-.1.1-.2.1-.3v-.2l1.5-7.1v-.4c.1-.3 0-.4 0-.5zm-12-29l4.3 7-5.2 3 .9-10zm4.3 10.2l-2.8 16.3-17.6 11.6 1.4-16.9 19-11zM157.2 21l18.4 5.8-1.3 13.9-17.1-6.7V21zm-26.7-.5h23.9v13.1h-23.9V20.5zm-1.8 18.2c.3.4.7.6 1.1.6.3 0 .6-.1.9-.3.6-.5.7-1.4.3-2l-.4-.5H141V38c0 .8.6 1.4 1.4 1.4.8 0 1.4-.7 1.4-1.4v-1.5h10.4l-.4.5c-.5.6-.4 1.5.3 2 .3.2.6.3.9.3.4 0 .9-.2 1.1-.6l.9-1.2c.1-.1.1-.2.2-.3l6.5 2.6-.5.6c-.5.6-.4 1.5.3 2 .3.2.6.3.9.3.4 0 .9-.2 1.1-.6l.9-1.2.1-.1 5.6 2.2-10.7 6.1c-.5.3-.9.8-.9 1.4l-1.4 17.1-.5-.7c-.5-.6-1.4-.7-2-.3-.6.5-.7 1.4-.3 2l.7.9h-13.4c0-.1.1-.3.1-.4v-1.5c0-.8-.6-1.4-1.4-1.4-.8 0-1.4.7-1.4 1.4v1.5c0 .2 0 .3.1.4h-13.4l.7-.9c.5-.6.4-1.5-.3-2-.6-.5-1.5-.4-2 .3l-.5.7-1.4-17.1c-.1-.6-.4-1.1-.9-1.4L112.6 43l5.6-2.2.1.1.9 1.2c.3.4.7.6 1.1.6.3 0 .6-.1.9-.3.6-.5.7-1.4.3-2l-.5-.6 6.5-2.6c0 .1.1.2.2.3l1 1.2zm-1-17.7v13.1l-17.1 6.7-1.3-13.9 18.4-5.9zm-20.9 9.2l.9 10-5.2-3 4.3-7zm14.7 21.2l1.4 16.9-17.6-11.6-2.8-16.3 19 11zM98.1 62.8L121.5 78l.7 4.2L98.8 66l-.7-3.2zM109.7 77l13.4 9.3 9.6 13.7-23-23zm14.8 1.6h36l-.8 5.2h-34.3l-.9-5.2zm18 30.4l-15.6-22.3h31.3L142.5 109zm9.8-9.1l9.6-13.7 13.4-9.3-23 23zM186.1 66l-23.4 16.2.7-4.2 23.4-15.2-.7 3.2zm-24.4 9.8h-38.5L97.9 59.3l3.7-6.8.9 5.3c0 .2.1.3.2.5l.1.1c.1.1.1.2.2.2l.1.1 20.6 13.6s.1.1.2.1h.1c.2.1.3.1.5.1h35.9c.2 0 .3 0 .5-.1h.1s.1-.1.2-.1l20.6-13.6.1-.1.2-.2.1-.1c.1-.2.2-.3.2-.5l.9-5.3 3.7 6.8-25.3 16.5z"/><path class="st1" d="M156.7 57.7l-7.3-1.5c.1-.2.1-.5.1-.7 0-1.3-1.3-2.5-3.4-3.2l11.1-8c.1-.1.2-.3.1-.5-.1-.1-.3-.2-.5-.1L145.6 52c-.1 0-.1.1-.1.2-.9-.2-2-.4-3.1-.4-.8 0-1.5.1-2.2.2-.1-.1-.2-.3-.3-.4l-10.3-8c-.7-.6-1.7-.4-2.3.3-.6.7-.4 1.7.3 2.3l9.1 7.2c-.9.6-1.5 1.4-1.5 2.3 0 2.1 3.2 3.8 7.2 3.8 1.4 0 2.7-.2 3.8-.6l.6.3 9.3 1.9h.3c.8 0 1.4-.5 1.6-1.3.2-1.1-.4-1.9-1.3-2.1zm-17.9-2.2c0-1 1.6-1.9 3.6-1.9s3.6.8 3.6 1.9-1.6 1.9-3.6 1.9-3.6-.8-3.6-1.9z"/></svg>