<?xml version="1.0" encoding="utf-8"?>
<!-- Generator: Adobe Illustrator 21.1.0, SVG Export Plug-In . SVG Version: 6.00 Build 0)  -->
<svg version="1.1" id="Livello_1" xmlns="http://www.w3.org/2000/svg" xmlns:xlink="http://www.w3.org/1999/xlink" x="0px" y="0px"
	 viewBox="0 0 284.9 131.4" style="enable-background:new 0 0 284.9 131.4;" xml:space="preserve">
<style type="text/css">
	.st0{fill:#771238;}
	.st1{fill:#E84555;}
</style>
<g>
	<g>
		<g>
			<polygon class="st0" points="35.2,98.8 23.8,98.8 23.8,90 17.6,90 17.6,113.8 23.8,113.8 23.8,105 35.2,105 35.2,113.8 
				41.4,113.8 41.4,90 35.2,90 			"/>
			<polygon class="st0" points="45,96.1 53.6,96.1 53.6,113.8 59.8,113.8 59.8,96.1 74.4,96.1 74.4,113.8 80.6,113.8 80.6,96.1 
				89.2,96.1 89.2,90 45,90 			"/>
			<path class="st0" d="M116.3,96.6c-0.1-0.6-0.3-1.3-0.6-1.9c-0.3-0.6-0.6-1.2-1.1-1.8c-0.4-0.6-1-1.1-1.6-1.5
				c-0.6-0.4-1.4-0.8-2.2-1.1c-0.8-0.3-1.7-0.4-2.7-0.4h-8.8c-0.7,0-1.4,0.1-2.1,0.3c-0.8,0.2-1.5,0.6-2.1,1.1
				c-0.7,0.5-1.2,1.2-1.7,2.1c-0.4,0.9-0.7,1.9-0.7,3.1v17.2h6.2V96.6c0-0.2,0-0.3,0.1-0.4c0,0,0.1-0.1,0.4-0.1h8.8
				c0.4,0,0.7,0.1,0.9,0.2c0.2,0.1,0.5,0.2,0.6,0.4c0.2,0.2,0.3,0.4,0.4,0.7c0.1,0.3,0.2,0.7,0.2,0.9v1.8c0,0.4-0.1,0.7-0.2,0.9
				c-0.1,0.2-0.2,0.5-0.4,0.6c-0.2,0.2-0.4,0.3-0.7,0.4c-0.3,0.1-0.6,0.2-0.9,0.2H102v6.2h6.1c0.6,0,1.1-0.1,1.8-0.2
				c0.6-0.1,1.3-0.3,1.9-0.6c0.6-0.3,1.2-0.6,1.8-1.1c0.6-0.4,1.1-1,1.5-1.6c0.4-0.6,0.8-1.4,1-2.2c0.3-0.8,0.4-1.7,0.4-2.7v-1.8
				C116.5,97.8,116.4,97.2,116.3,96.6L116.3,96.6z"/>
		</g>
		<path class="st1" d="M173.1,90.3L173.1,90.3c-0.6,0.2-1.2,0.5-1.7,0.8c-0.5,0.3-0.9,0.8-1.3,1.2c-0.3,0.4-0.6,0.9-0.8,1.4
			c-0.2,0.5-0.4,1-0.5,1.5c-0.1,0.5-0.2,1-0.2,1.4v10.6c0,0.8,0.1,1.5,0.3,2.1c0.2,0.6,0.5,1.2,0.8,1.7c0.4,0.5,0.8,0.9,1.2,1.3
			c0.4,0.3,0.9,0.6,1.4,0.8c0.5,0.2,1,0.4,1.5,0.5c0.5,0.1,1,0.2,1.4,0.2h15.2v-6.2h-15.2c-0.2,0-0.3,0-0.4-0.1c0,0-0.1-0.2-0.1-0.4
			V96.6c0-0.3,0.1-0.4,0.1-0.4c0,0,0.1-0.1,0.4-0.1h15.2V90h-15.2C174.4,90,173.7,90.1,173.1,90.3z"/>
		<path class="st1" d="M215.8,90.9L215.8,90.9c-0.3-0.3-0.6-0.5-1-0.7c-0.4-0.2-0.8-0.2-1.2-0.2h-8.8c-1.7,0-3.3,0.3-4.7,0.9
			c-1.4,0.6-2.7,1.4-3.8,2.5c-1.1,1.1-1.9,2.3-2.5,3.8c-0.6,1.5-0.9,3.1-0.9,4.8v11.9h6.2v-5.3h11.5v5.3h6.2V93.1
			c0-0.4-0.1-0.8-0.2-1.2C216.4,91.5,216.1,91.2,215.8,90.9z M210.6,96.1v6.2h-11.5v-0.4c0-0.9,0.1-1.7,0.4-2.4
			c0.3-0.6,0.6-1.2,0.9-1.6c0.4-0.4,0.8-0.7,1.2-1c0.5-0.3,1-0.4,1.4-0.6c0.4-0.1,0.8-0.2,1.1-0.2c0.3,0,0.6,0,0.7,0H210.6z"/>
		<path class="st1" d="M243.8,100.7c-0.2-0.4-0.4-0.7-0.6-1c-0.3-0.3-0.6-0.5-1-0.7c-0.4-0.2-0.8-0.3-1.2-0.3h-11.3v6.2h8.2v2.6h-11
			c-0.2,0-0.3,0-0.4-0.1c0,0-0.1-0.2-0.1-0.4V96.6c0-0.3,0.1-0.4,0.1-0.4c0,0,0.1-0.1,0.4-0.1h17V90h-17c-0.8,0-1.5,0.1-2.1,0.3
			c-0.6,0.2-1.2,0.5-1.7,0.8c-0.5,0.3-0.9,0.8-1.3,1.2c-0.3,0.4-0.6,0.9-0.8,1.4c-0.2,0.5-0.4,1-0.5,1.5s-0.2,1-0.2,1.4v10.6
			c0,0.8,0.1,1.5,0.3,2.1c0.2,0.6,0.5,1.2,0.8,1.7c0.4,0.5,0.8,0.9,1.2,1.3c0.4,0.3,0.9,0.6,1.4,0.8c0.5,0.2,1,0.4,1.5,0.5
			c0.5,0.1,1,0.2,1.4,0.2h14.1c0.4,0,0.8-0.1,1.2-0.2c0.4-0.2,0.7-0.4,1-0.7c0.3-0.3,0.5-0.6,0.7-1c0.2-0.4,0.2-0.8,0.2-1.2v-8.8
			C244,101.5,243.9,101,243.8,100.7L243.8,100.7z"/>
		<rect x="256" y="98.8" class="st1" width="11.3" height="6.2"/>
		<path class="st1" d="M267.3,107.6h-13.5c-0.2,0-0.4,0-0.4-0.1c0,0-0.1-0.1-0.1-0.4v-11h13.9V90h-17c-0.4,0-0.8,0.1-1.2,0.2
			c-0.4,0.2-0.7,0.4-1,0.7c-0.3,0.3-0.5,0.6-0.6,1c-0.2,0.4-0.2,0.8-0.2,1.2v14.1c0,1.2,0.2,2.2,0.7,3.1c0.4,0.8,1,1.5,1.7,2.1
			c0.7,0.5,1.4,0.9,2.2,1.1c0.7,0.2,1.4,0.3,2.1,0.3h13.5V107.6z"/>
	</g>
	<path class="st1" d="M190.2,59.2c0,0,0-0.1,0-0.1l-6-11.2l1.7-9.9c0-0.1,0-0.3,0-0.5c0,0,0-0.1,0-0.2c0-0.1-0.1-0.2-0.1-0.3
		l-7.3-11.9c0,0-0.1-0.1-0.1-0.1l0,0c-0.1-0.1-0.1-0.1-0.2-0.2c0,0-0.1-0.1-0.1-0.1c-0.1,0-0.1-0.1-0.3-0.1l-21.4-6.8
		c-0.1,0-0.1,0-0.2,0c0,0-0.1,0-0.2,0h-26.7c-0.1,0-0.2,0-0.2,0c-0.1,0-0.2,0-0.2,0l-21.4,6.8c-0.1,0-0.2,0.1-0.3,0.1
		c0,0-0.1,0.1-0.1,0.1c-0.1,0.1-0.1,0.1-0.2,0.2l0,0c0,0-0.1,0.1-0.1,0.1L99.3,37c-0.1,0.1-0.1,0.2-0.1,0.3c0,0,0,0.1,0,0.2
		c0,0.2,0,0.3,0,0.5l1.7,9.9l-6,11.2c0,0,0,0.1,0,0.1c-0.1,0.1-0.1,0.3-0.1,0.5c0,0.1,0,0.3,0,0.4l1.5,7.1c0,0,0,0.1,0,0.2
		c0,0.1,0.1,0.2,0.1,0.3c0,0,0.1,0.1,0.1,0.1c0,0.1,0.1,0.1,0.1,0.2l45.5,45.4c0,0,0,0,0,0l0,0l0.1,0.1c0.1,0.1,0.2,0.1,0.2,0.1
		c0,0,0.1,0,0.1,0c0,0,0.1,0,0.1,0c0.1,0,0.1-0.1,0.2-0.1l0.1-0.1l0,0c0,0,0,0,0,0l45.5-45.4c0,0,0.1-0.1,0.1-0.2
		c0,0,0.1-0.1,0.1-0.1c0-0.1,0.1-0.2,0.1-0.3c0,0,0-0.1,0-0.2l1.5-7.1c0-0.1,0-0.3,0-0.4C190.3,59.4,190.2,59.3,190.2,59.2z
		 M178.2,30.2l4.3,7l-5.2,3L178.2,30.2z M182.5,40.4l-2.8,16.3l-17.6,11.6l1.4-16.9L182.5,40.4z M157.2,21l18.4,5.8l-1.3,13.9
		l-17.1-6.7V21z M130.5,20.5h23.9v13.1h-23.9V20.5z M128.7,38.7c0.3,0.4,0.7,0.6,1.1,0.6c0.3,0,0.6-0.1,0.9-0.3
		c0.6-0.5,0.7-1.4,0.3-2l-0.4-0.5h10.4V38c0,0.8,0.6,1.4,1.4,1.4c0.8,0,1.4-0.7,1.4-1.4v-1.5h10.4l-0.4,0.5c-0.5,0.6-0.4,1.5,0.3,2
		c0.3,0.2,0.6,0.3,0.9,0.3c0.4,0,0.9-0.2,1.1-0.6l0.9-1.2c0.1-0.1,0.1-0.2,0.2-0.3l6.5,2.6l-0.5,0.6c-0.5,0.6-0.4,1.5,0.3,2
		c0.3,0.2,0.6,0.3,0.9,0.3c0.4,0,0.9-0.2,1.1-0.6l0.9-1.2c0,0,0.1-0.1,0.1-0.1l5.6,2.2l-10.7,6.1c-0.5,0.3-0.9,0.8-0.9,1.4
		l-1.4,17.1l-0.5-0.7c-0.5-0.6-1.4-0.7-2-0.3c-0.6,0.5-0.7,1.4-0.3,2l0.7,0.9h-13.4c0-0.1,0.1-0.3,0.1-0.4v-1.5
		c0-0.8-0.6-1.4-1.4-1.4c-0.8,0-1.4,0.7-1.4,1.4v1.5c0,0.2,0,0.3,0.1,0.4h-13.4l0.7-0.9c0.5-0.6,0.4-1.5-0.3-2
		c-0.6-0.5-1.5-0.4-2,0.3l-0.5,0.7l-1.4-17.1c-0.1-0.6-0.4-1.1-0.9-1.4L112.6,43l5.6-2.2c0,0,0.1,0.1,0.1,0.1l0.9,1.2
		c0.3,0.4,0.7,0.6,1.1,0.6c0.3,0,0.6-0.1,0.9-0.3c0.6-0.5,0.7-1.4,0.3-2l-0.5-0.6l6.5-2.6c0,0.1,0.1,0.2,0.2,0.3L128.7,38.7z
		 M127.7,21v13.1l-17.1,6.7l-1.3-13.9L127.7,21z M106.8,30.2l0.9,10l-5.2-3L106.8,30.2z M121.5,51.4l1.4,16.9l-17.6-11.6l-2.8-16.3
		L121.5,51.4z M98.1,62.8L121.5,78l0.7,4.2L98.8,66L98.1,62.8z M109.7,77l13.4,9.3l9.6,13.7L109.7,77z M124.5,78.6h36l-0.8,5.2
		h-34.3L124.5,78.6z M142.5,109l-15.6-22.3h31.3L142.5,109z M152.3,99.9l9.6-13.7l13.4-9.3L152.3,99.9z M186.1,66l-23.4,16.2
		l0.7-4.2l23.4-15.2L186.1,66z M161.7,75.8h-38.5L97.9,59.3l3.7-6.8l0.9,5.3c0,0.2,0.1,0.3,0.2,0.5c0,0,0,0,0.1,0.1l0,0
		c0.1,0.1,0.1,0.2,0.2,0.2c0,0,0.1,0.1,0.1,0.1l20.6,13.6c0,0,0.1,0.1,0.2,0.1c0,0,0.1,0,0.1,0c0.2,0.1,0.3,0.1,0.5,0.1h35.9
		c0.2,0,0.3,0,0.5-0.1c0,0,0.1,0,0.1,0c0,0,0.1-0.1,0.2-0.1l20.6-13.6c0,0,0.1-0.1,0.1-0.1c0,0,0.1-0.1,0.2-0.2l0,0
		c0,0,0.1-0.1,0.1-0.1c0.1-0.2,0.2-0.3,0.2-0.5l0.9-5.3l3.7,6.8L161.7,75.8z"/>
</g>
<path class="st1" d="M156.7,57.7l-7.3-1.5c0.1-0.2,0.1-0.5,0.1-0.7c0-1.3-1.3-2.5-3.4-3.2l11.1-8c0.1-0.1,0.2-0.3,0.1-0.5
	c-0.1-0.1-0.3-0.2-0.5-0.1L145.6,52c-0.1,0-0.1,0.1-0.1,0.2c-0.9-0.2-2-0.4-3.1-0.4c-0.8,0-1.5,0.1-2.2,0.2
	c-0.1-0.1-0.2-0.3-0.3-0.4l-10.3-8c-0.7-0.6-1.7-0.4-2.3,0.3c-0.6,0.7-0.4,1.7,0.3,2.3l9.1,7.2c-0.9,0.6-1.5,1.4-1.5,2.3
	c0,2.1,3.2,3.8,7.2,3.8c1.4,0,2.7-0.2,3.8-0.6c0.2,0.1,0.4,0.2,0.6,0.3l9.3,1.9c0.1,0,0.2,0,0.3,0c0.8,0,1.4-0.5,1.6-1.3
	C158.2,58.7,157.6,57.9,156.7,57.7z M138.8,55.5c0-1,1.6-1.9,3.6-1.9c2,0,3.6,0.8,3.6,1.9s-1.6,1.9-3.6,1.9
	C140.4,57.4,138.8,56.6,138.8,55.5z"/>
</svg>
